<svg width="33" height="32" viewBox="0 0 33 32" fill="none" xmlns="http://www.w3.org/2000/svg" style="height: 32px;"><mask id="mask0_259_497" maskUnits="userSpaceOnUse" x="0" y="0" width="33" height="32" style="mask-type: alpha;"><rect x="0.700195" width="32" height="32"></rect></mask><g mask="url(#mask0_259_497)"><path d="M6.0332 25.3334V13.3334C6.0332 12.9111 6.12765 12.5111 6.31654 12.1334C6.50543 11.7556 6.76654 11.4445 7.09987 11.2L15.0999 5.20002C15.5665 4.84446 16.0999 4.66669 16.6999 4.66669C17.2999 4.66669 17.8332 4.84446 18.2999 5.20002L26.2999 11.2C26.6332 11.4445 26.8943 11.7556 27.0832 12.1334C27.2721 12.5111 27.3665 12.9111 27.3665 13.3334V25.3334C27.3665 26.0667 27.1054 26.6945 26.5832 27.2167C26.061 27.7389 25.4332 28 24.6999 28H20.6999C20.3221 28 20.0054 27.8722 19.7499 27.6167C19.4943 27.3611 19.3665 27.0445 19.3665 26.6667V20C19.3665 19.6222 19.2388 19.3056 18.9832 19.05C18.7276 18.7945 18.411 18.6667 18.0332 18.6667H15.3665C14.9888 18.6667 14.6721 18.7945 14.4165 19.05C14.161 19.3056 14.0332 19.6222 14.0332 20V26.6667C14.0332 27.0445 13.9054 27.3611 13.6499 27.6167C13.3943 27.8722 13.0776 28 12.6999 28H8.69987C7.96654 28 7.33876 27.7389 6.81654 27.2167C6.29431 26.6945 6.0332 26.0667 6.0332 25.3334Z"></path></g></svg>