<svg width="33" height="32" viewBox="0 0 33 32" fill="none" xmlns="http://www.w3.org/2000/svg" style="height: 32px;"><mask id="mask0_263_660" maskUnits="userSpaceOnUse" x="0" y="0" width="33" height="32" style="mask-type: alpha;"><rect x="0.900391" width="32" height="32"></rect></mask><g mask="url(#mask0_263_660)"><path d="M8.90055 29.3333C8.16722 29.3333 7.53944 29.0722 7.01722 28.55C6.495 28.0278 6.23389 27.4 6.23389 26.6667V5.33332C6.23389 4.59999 6.495 3.97221 7.01722 3.44999C7.53944 2.92777 8.16722 2.66666 8.90055 2.66666H24.9006C25.6339 2.66666 26.2617 2.92777 26.7839 3.44999C27.3061 3.97221 27.5672 4.59999 27.5672 5.33332V26.6667C27.5672 27.4 27.3061 28.0278 26.7839 28.55C26.2617 29.0722 25.6339 29.3333 24.9006 29.3333H8.90055ZM8.90055 26.6667H24.9006V5.33332H8.90055V26.6667ZM16.9006 25.3333C18.745 25.3333 20.3172 24.6833 21.6172 23.3833C22.9172 22.0833 23.5672 20.5111 23.5672 18.6667C23.5672 16.8222 22.9172 15.25 21.6172 13.95C20.3172 12.65 18.745 12 16.9006 12C15.0561 12 13.4839 12.65 12.1839 13.95C10.8839 15.25 10.2339 16.8222 10.2339 18.6667C10.2339 20.5111 10.8839 22.0833 12.1839 23.3833C13.4839 24.6833 15.0561 25.3333 16.9006 25.3333ZM16.9006 23.0667C16.3228 23.0667 15.7617 22.9611 15.2172 22.75C14.6728 22.5389 14.1894 22.2222 13.7672 21.8L20.0339 15.5333C20.4561 15.9555 20.7728 16.4389 20.9839 16.9833C21.195 17.5278 21.3006 18.0889 21.3006 18.6667C21.3006 19.8889 20.8728 20.9278 20.0172 21.7833C19.1617 22.6389 18.1228 23.0667 16.9006 23.0667ZM11.5672 9.33332C11.945 9.33332 12.2617 9.20555 12.5172 8.94999C12.7728 8.69443 12.9006 8.37777 12.9006 7.99999C12.9006 7.62221 12.7728 7.30555 12.5172 7.04999C12.2617 6.79443 11.945 6.66666 11.5672 6.66666C11.1894 6.66666 10.8728 6.79443 10.6172 7.04999C10.3617 7.30555 10.2339 7.62221 10.2339 7.99999C10.2339 8.37777 10.3617 8.69443 10.6172 8.94999C10.8728 9.20555 11.1894 9.33332 11.5672 9.33332ZM15.5672 9.33332C15.945 9.33332 16.2617 9.20555 16.5172 8.94999C16.7728 8.69443 16.9006 8.37777 16.9006 7.99999C16.9006 7.62221 16.7728 7.30555 16.5172 7.04999C16.2617 6.79443 15.945 6.66666 15.5672 6.66666C15.1894 6.66666 14.8728 6.79443 14.6172 7.04999C14.3617 7.30555 14.2339 7.62221 14.2339 7.99999C14.2339 8.37777 14.3617 8.69443 14.6172 8.94999C14.8728 9.20555 15.1894 9.33332 15.5672 9.33332Z" fill="currentColor"></path></g></svg>