<svg xmlns="http://www.w3.org/2000/svg" viewBox="0 0 1417.32 1417.32" style="height: 32px;"><defs><style>
.cls-1 {fill: #d83e71;}
.cls-2 {fill: none;}
</style></defs><path class="cls-1" d="m143.99,1143.55h1129.52c71.98,0,130.33,58.35,130.33,130.33h0c0,71.98-58.35,130.33-130.33,130.33H143.99c-71.98,0-130.33-58.35-130.33-130.33h0c0-71.98,58.35-130.33,130.33-130.33Z"></path><path class="cls-1" d="m122.27,491.91c0-71.98,58.35-130.33,130.33-130.33h0c71.98,0,130.33,58.35,130.33,130.33v434.43c0,71.98-58.35,130.33-130.33,130.33h0c-71.98,0-130.33-58.35-130.33-130.33v-434.43Z"></path><path class="cls-1" d="m122.27,144.36c0-71.98,58.35-130.33,130.33-130.33h0c71.98,0,130.33,58.35,130.33,130.33h0c0,71.98-58.35,130.33-130.33,130.33h0c-71.98,0-130.33-58.35-130.33-130.33h0Z"></path><path class="cls-1" d="m904.25,166.08c-215.94,0-390.99,175.05-390.99,390.99v369.27c0,71.98,58.35,130.33,130.33,130.33s130.33-58.35,130.33-130.33v-369.27c0-71.98,58.35-130.33,130.33-130.33,71.98,0,130.33,58.35,130.33,130.33v369.27c0,71.98,58.35,130.33,130.33,130.33s130.33-58.35,130.33-130.33v-369.27c0-215.94-175.05-390.99-390.99-390.99Z"></path><rect class="cls-2" x="13.66" y="14.03" width="1390.18" height="1390.18"></rect></svg>