<svg width="33" height="32" viewBox="0 0 33 32" fill="none" xmlns="http://www.w3.org/2000/svg" style="height: 32px;"><mask id="mask0_263_665" maskUnits="userSpaceOnUse" x="0" y="0" width="33" height="32" style="mask-type: alpha;"><rect x="0.300293" width="32" height="32"></rect></mask><g mask="url(#mask0_263_665)"><path d="M7.37713 27.3333C6.70357 27.3333 6.13346 27.1 5.6668 26.6333C5.20013 26.1667 4.9668 25.5965 4.9668 24.923V7.07699C4.9668 6.40343 5.20013 5.83332 5.6668 5.36666C6.13346 4.89999 6.70357 4.66666 7.37713 4.66666H25.2231C25.8967 4.66666 26.4668 4.89999 26.9335 5.36666C27.4001 5.83332 27.6335 6.40343 27.6335 7.07699V24.923C27.6335 25.5965 27.4001 26.1667 26.9335 26.6333C26.4668 27.1 25.8967 27.3333 25.2231 27.3333H7.37713ZM7.37713 25.3333H15.3001V6.66666H7.37713C7.27446 6.66666 7.18046 6.70943 7.09513 6.79499C7.00957 6.88032 6.9668 6.97432 6.9668 7.07699V24.923C6.9668 25.0257 7.00957 25.1197 7.09513 25.205C7.18046 25.2905 7.27446 25.3333 7.37713 25.3333ZM17.3001 25.3333H25.2231C25.3258 25.3333 25.4198 25.2905 25.5051 25.205C25.5907 25.1197 25.6335 25.0257 25.6335 24.923V16H17.3001V25.3333ZM17.3001 14H25.6335V7.07699C25.6335 6.97432 25.5907 6.88032 25.5051 6.79499C25.4198 6.70943 25.3258 6.66666 25.2231 6.66666H17.3001V14Z" fill="currentColor"></path></g></svg>