<svg width="32" height="32" viewBox="0 0 32 32" fill="none" xmlns="http://www.w3.org/2000/svg" style="height: 32px;"><mask id="mask0_475_794" maskUnits="userSpaceOnUse" x="0" y="0" width="32" height="32" style="mask-type: alpha;"><rect width="32" height="32" fill="currentColor"></rect></mask><g mask="url(#mask0_475_794)"><path d="M30 7.07699V24.923C30 25.5859 29.764 26.1533 29.292 26.6253C28.82 27.0973 28.2526 27.3333 27.5897 27.3333H23C22.7167 27.3333 22.4791 27.2374 22.2873 27.0457C22.0958 26.8539 22 26.6163 22 26.333C22 26.0494 22.0958 25.812 22.2873 25.6207C22.4791 25.4291 22.7167 25.3333 23 25.3333H27.5897C27.7094 25.3333 27.8078 25.2949 27.8847 25.218C27.9616 25.1411 28 25.0428 28 24.923V7.07699C28 6.95721 27.9616 6.85888 27.8847 6.78199C27.8078 6.7051 27.7094 6.66666 27.5897 6.66666H16C15.8802 6.66666 15.7819 6.7051 15.705 6.78199C15.6281 6.85888 15.5897 6.95721 15.5897 7.07699V8.19232C15.5897 8.47566 15.4938 8.71321 15.302 8.90499C15.1102 9.09655 14.8727 9.19232 14.5893 9.19232C14.3058 9.19232 14.0683 9.09655 13.877 8.90499C13.6854 8.71321 13.5897 8.47566 13.5897 8.19232V7.03599C13.5897 6.38799 13.8226 5.8311 14.2883 5.36532C14.7541 4.89955 15.311 4.66666 15.959 4.66666H27.5897C28.2526 4.66666 28.82 4.90266 29.292 5.37466C29.764 5.84666 30 6.4141 30 7.07699ZM2 16.2383C2 15.8452 2.08933 15.4748 2.268 15.127C2.44667 14.779 2.69667 14.4957 3.018 14.277L9.27433 9.81799C9.49611 9.65843 9.72289 9.54377 9.95467 9.47399C10.1864 9.40421 10.4233 9.36932 10.6653 9.36932C10.9073 9.36932 11.1446 9.40421 11.377 9.47399C11.6092 9.54377 11.8366 9.65843 12.059 9.81799L18.3153 14.277C18.6367 14.4957 18.8867 14.779 19.0653 15.127C19.244 15.4748 19.3333 15.8452 19.3333 16.2383V24.923C19.3333 25.5859 19.0973 26.1533 18.6253 26.6253C18.1533 27.0973 17.5859 27.3333 16.923 27.3333H14.5897C13.927 27.3333 13.3597 27.0973 12.8877 26.6253C12.4157 26.1533 12.1797 25.5859 12.1797 24.923V21H9.15367V24.923C9.15367 25.5859 8.91767 26.1533 8.44567 26.6253C7.97367 27.0973 7.40633 27.3333 6.74367 27.3333H4.41033C3.74744 27.3333 3.18 27.0973 2.708 26.6253C2.236 26.1533 2 25.5859 2 24.923V16.2383ZM4 16.218V24.923C4 25.0428 4.03844 25.1411 4.11533 25.218C4.19222 25.2949 4.29056 25.3333 4.41033 25.3333H6.74367C6.86322 25.3333 6.96144 25.2949 7.03833 25.218C7.11544 25.1411 7.154 25.0428 7.154 24.923V21.0257C7.154 20.4632 7.351 19.985 7.745 19.591C8.139 19.197 8.61711 19 9.17933 19H12.154C12.7162 19 13.1943 19.197 13.5883 19.591C13.9823 19.985 14.1793 20.4632 14.1793 21.0257V24.923C14.1793 25.0428 14.2179 25.1411 14.295 25.218C14.3719 25.2949 14.4701 25.3333 14.5897 25.3333H16.923C17.0428 25.3333 17.1411 25.2949 17.218 25.218C17.2949 25.1411 17.3333 25.0428 17.3333 24.923V16.218C17.3333 16.1495 17.3183 16.0854 17.2883 16.0257C17.2586 15.9659 17.2137 15.9145 17.1537 15.8717L10.8973 11.459C10.8291 11.4077 10.7522 11.382 10.6667 11.382C10.5811 11.382 10.5042 11.4077 10.436 11.459L4.17967 15.8717C4.11967 15.9145 4.07478 15.9659 4.045 16.0257C4.015 16.0854 4 16.1495 4 16.218ZM23.423 11.846H24.577C24.7377 11.846 24.8782 11.7858 24.9987 11.6653C25.1191 11.5449 25.1793 11.4043 25.1793 11.2437V10.0897C25.1793 9.92899 25.1191 9.78843 24.9987 9.66799C24.8782 9.54754 24.7377 9.48732 24.577 9.48732H23.423C23.2623 9.48732 23.1218 9.54754 23.0013 9.66799C22.8809 9.78843 22.8207 9.92899 22.8207 10.0897V11.2437C22.8207 11.4043 22.8809 11.5449 23.0013 11.6653C23.1218 11.7858 23.2623 11.846 23.423 11.846ZM23.423 17.1793H24.577C24.7377 17.1793 24.8782 17.1191 24.9987 16.9987C25.1191 16.8782 25.1793 16.7377 25.1793 16.577V15.423C25.1793 15.2623 25.1191 15.1218 24.9987 15.0013C24.8782 14.8809 24.7377 14.8207 24.577 14.8207H23.423C23.2623 14.8207 23.1218 14.8809 23.0013 15.0013C22.8809 15.1218 22.8207 15.2623 22.8207 15.423V16.577C22.8207 16.7377 22.8809 16.8782 23.0013 16.9987C23.1218 17.1191 23.2623 17.1793 23.423 17.1793ZM23.423 22.5127H24.577C24.7377 22.5127 24.8782 22.4524 24.9987 22.332C25.1191 22.2115 25.1793 22.071 25.1793 21.9103V20.7563C25.1793 20.5957 25.1191 20.4551 24.9987 20.3347C24.8782 20.2142 24.7377 20.154 24.577 20.154H23.423C23.2623 20.154 23.1218 20.2142 23.0013 20.3347C22.8809 20.4551 22.8207 20.5957 22.8207 20.7563V21.9103C22.8207 22.071 22.8809 22.2115 23.0013 22.332C23.1218 22.4524 23.2623 22.5127 23.423 22.5127Z" fill="currentColor"></path></g></svg>