<svg width="26" height="20" viewBox="0 0 26 20" xmlns="http://www.w3.org/2000/svg" style="height: 32px;"><path d="M19.8342 19.7437C18.9944 19.7437 18.2844 19.4537 17.7042 18.8737C17.1237 18.2939 16.8335 17.5841 16.8335 16.7443C16.8335 15.9046 17.1235 15.1945 17.7035 14.614C18.2835 14.0338 18.9935 13.7437 19.8335 13.7437C20.0626 13.7437 20.2946 13.7731 20.5295 13.832C20.7646 13.8909 21.0027 13.993 21.2438 14.1383V8.43602C21.2438 8.09446 21.3593 7.80824 21.5902 7.57735C21.8213 7.34624 22.1075 7.23068 22.4488 7.23068H24.3205C24.6472 7.23068 24.9254 7.34379 25.1552 7.57001C25.3852 7.79601 25.5002 8.07613 25.5002 8.41035C25.5002 8.73679 25.3852 9.01502 25.1552 9.24502C24.9254 9.47479 24.6472 9.58968 24.3205 9.58968H22.8335V16.7437C22.8335 17.5837 22.5436 18.2937 21.9638 18.8737C21.3838 19.4537 20.6739 19.7437 19.8342 19.7437ZM2.0385 19.7437C1.69716 19.7437 1.41094 19.6281 1.17983 19.397C0.94894 19.1661 0.833496 18.8799 0.833496 18.5383V16.7793C0.833496 16.1127 1.01083 15.5046 1.3655 14.955C1.72016 14.4055 2.19416 13.9811 2.7875 13.682C4.12238 13.0273 5.45605 12.5406 6.7885 12.2217C8.12094 11.903 9.46927 11.7437 10.8335 11.7437C11.3788 11.7437 11.9161 11.7668 12.4452 11.813C12.9741 11.859 13.4941 11.9376 14.0052 12.0487C14.3523 12.1205 14.5891 12.2692 14.7155 12.495C14.8419 12.7206 14.8873 12.9572 14.8515 13.205C14.8155 13.453 14.7005 13.665 14.5065 13.841C14.3125 14.017 14.0643 14.0735 13.7618 14.0103C13.2952 13.9215 12.8169 13.8548 12.3272 13.8103C11.8374 13.7659 11.3395 13.7437 10.8335 13.7437C9.6095 13.7437 8.4035 13.8907 7.2155 14.1847C6.0275 14.4787 4.85739 14.906 3.70516 15.4667C3.43694 15.6033 3.22461 15.7888 3.06816 16.023C2.91172 16.2572 2.8335 16.5093 2.8335 16.7793V17.7437H13.0488C13.3822 17.7437 13.6322 17.8476 13.7988 18.0553C13.9655 18.2631 14.0488 18.4918 14.0488 18.7413C14.0488 18.9907 13.9655 19.22 13.7988 19.4293C13.6322 19.6389 13.3822 19.7437 13.0488 19.7437H2.0385ZM10.8335 9.58968C9.55016 9.58968 8.45161 9.13279 7.53783 8.21901C6.62383 7.30501 6.16683 6.20635 6.16683 4.92301C6.16683 3.63968 6.62383 2.54113 7.53783 1.62735C8.45161 0.713348 9.55016 0.256348 10.8335 0.256348C12.1168 0.256348 13.2154 0.713348 14.1292 1.62735C15.0432 2.54113 15.5002 3.63968 15.5002 4.92301C15.5002 6.20635 15.0432 7.30501 14.1292 8.21901C13.2154 9.13279 12.1168 9.58968 10.8335 9.58968ZM10.8335 7.58968C11.5668 7.58968 12.1946 7.32857 12.7168 6.80635C13.2391 6.28413 13.5002 5.65635 13.5002 4.92301C13.5002 4.18968 13.2391 3.5619 12.7168 3.03968C12.1946 2.51746 11.5668 2.25635 10.8335 2.25635C10.1002 2.25635 9.47239 2.51746 8.95016 3.03968C8.42794 3.5619 8.16683 4.18968 8.16683 4.92301C8.16683 5.65635 8.42794 6.28413 8.95016 6.80635C9.47239 7.32857 10.1002 7.58968 10.8335 7.58968Z" fill="currentColor"></path></svg>